<?xml version="1.0" standalone="no"?>
<!DOCTYPE svg PUBLIC "-//W3C//DTD SVG 20010904//EN"
 "http://www.w3.org/TR/2001/REC-SVG-20010904/DTD/svg10.dtd">
<svg version="1.0" xmlns="http://www.w3.org/2000/svg"
 width="100.000000pt" height="100.000000pt" viewBox="0 0 100.000000 100.000000"
 preserveAspectRatio="xMidYMid meet">
<metadata>
Created by potrace 1.11, written by Peter Selinger 2001-2013
</metadata>
<g transform="translate(0.000000,100.000000) scale(0.100000,-0.100000)"
fill="#000000" stroke="none">
<path d="M0 500 l0 -500 500 0 500 0 0 500 0 500 -500 0 -500 0 0 -500z m530
209 c0 -12 -11 -32 -25 -45 -21 -19 -25 -32 -25 -79 0 -52 1 -55 25 -55 20 0
25 -5 25 -25 0 -20 -5 -25 -24 -25 -22 0 -25 -5 -28 -42 -3 -39 -6 -43 -30
-46 l-28 -3 0 136 0 137 34 34 c39 39 76 45 76 13z m90 -33 c0 -52 1 -55 28
-58 19 -2 28 -9 30 -25 3 -20 -1 -23 -27 -23 -29 0 -31 -2 -31 -40 0 -39 26
-80 51 -80 13 0 8 -52 -7 -57 -16 -5 -77 40 -91 67 -8 16 -13 70 -13 148 l0
122 30 0 c30 0 30 -1 30 -54z m-229 8 c17 -21 0 -49 -32 -49 -24 0 -36 23 -25
51 7 19 40 18 57 -2z m-125 -95 c31 -29 46 -81 42 -144 -3 -46 -5 -50 -30 -53
l-28 -3 0 65 c0 70 -20 106 -57 106 -38 0 -48 -18 -53 -92 -5 -71 -6 -73 -32
-76 l-28 -3 0 73 c0 80 21 131 63 148 34 15 96 4 123 -21z m124 -85 l0 -115
-27 3 -28 3 -3 113 -3 112 31 0 30 0 0 -116z m370 49 c0 -76 16 -103 61 -103
38 0 49 24 49 104 l0 66 30 0 30 0 0 -136 0 -136 -34 -34 c-44 -44 -76 -46
-76 -4 0 17 4 30 9 30 14 0 41 29 41 43 0 8 -13 11 -39 9 -52 -5 -99 21 -117
63 -8 19 -14 64 -14 100 l0 65 30 0 30 0 0 -67z"/>
</g>
</svg>
